<svg height="512" viewBox="0 0 512 512" width="512" xmlns="http://www.w3.org/2000/svg"><g id="Youtube"><rect fill="#cd2a00" height="336" rx="32" width="480" x="16" y="88"/><path d="m208 320v-128l112 64z" fill="#e0e0e2"/><path d="m464 80h-416a40.045 40.045 0 0 0 -40 40v272a40.045 40.045 0 0 0 40 40h416a40.045 40.045 0 0 0 40-40v-272a40.045 40.045 0 0 0 -40-40zm24 312a24.027 24.027 0 0 1 -24 24h-416a24.027 24.027 0 0 1 -24-24v-272a24.027 24.027 0 0 1 24-24h416a24.027 24.027 0 0 1 24 24z"/><path d="m128 384h-80a8 8 0 0 0 0 16h80a8 8 0 0 0 0-16z"/><path d="m160 384h-8a8 8 0 0 0 0 16h8a8 8 0 0 0 0-16z"/><path d="m323.969 249.054-112-64a8 8 0 0 0 -11.969 6.946v128a8 8 0 0 0 11.969 6.946l112-64a8 8 0 0 0 0-13.892zm-107.969 57.16v-100.428l87.876 50.214z"/></g></svg>